<svg width="45" height="55" viewBox="0 0 45 55" fill="none" xmlns="http://www.w3.org/2000/svg">
<path d="M3.97964 50.6039C4.6143 50.6039 5.0763 50.4966 5.36564 50.2819C5.65497 50.0673 5.79964 49.7639 5.79964 49.3719C5.79964 49.1386 5.7483 48.9379 5.64564 48.7699C5.5523 48.6019 5.4123 48.4526 5.22564 48.3219C5.0483 48.1819 4.82897 48.0559 4.56764 47.9439C4.3063 47.8226 4.00764 47.7059 3.67164 47.5939C3.33564 47.4726 3.00897 47.3419 2.69164 47.2019C2.38364 47.0526 2.1083 46.8706 1.86564 46.6559C1.6323 46.4413 1.44097 46.1846 1.29164 45.8859C1.15164 45.5873 1.08164 45.2279 1.08164 44.8079C1.08164 43.9306 1.38497 43.2446 1.99164 42.7499C2.5983 42.2459 3.4243 41.9939 4.46964 41.9939C5.0763 41.9939 5.61297 42.0639 6.07964 42.2039C6.55564 42.3346 6.92897 42.4793 7.19964 42.6379L6.65364 44.0659C6.3363 43.8886 5.9863 43.7533 5.60364 43.6599C5.2303 43.5666 4.84297 43.5199 4.44164 43.5199C3.96564 43.5199 3.5923 43.6179 3.32164 43.8139C3.0603 44.0099 2.92964 44.2853 2.92964 44.6399C2.92964 44.8546 2.97164 45.0413 3.05564 45.1999C3.14897 45.3493 3.27497 45.4846 3.43364 45.6059C3.60164 45.7273 3.79297 45.8393 4.00764 45.9419C4.23164 46.0446 4.4743 46.1426 4.73564 46.2359C5.19297 46.4039 5.59897 46.5766 5.95364 46.7539C6.31764 46.9219 6.62097 47.1273 6.86364 47.3699C7.11564 47.6033 7.30697 47.8833 7.43764 48.2099C7.5683 48.5273 7.63364 48.9146 7.63364 49.3719C7.63364 50.2493 7.32097 50.9306 6.69564 51.4159C6.07964 51.8919 5.1743 52.1299 3.97964 52.1299C3.5783 52.1299 3.20964 52.1019 2.87364 52.0459C2.54697 51.9993 2.25297 51.9386 1.99164 51.8639C1.73964 51.7893 1.5203 51.7146 1.33364 51.6399C1.14697 51.5559 0.997637 51.4813 0.885637 51.4159L1.40364 49.9739C1.65564 50.1139 1.9963 50.2539 2.42564 50.3939C2.85497 50.5339 3.37297 50.6039 3.97964 50.6039ZM11.9322 42.1199C13.3415 42.1199 14.4195 42.3766 15.1662 42.8899C15.9222 43.4033 16.3002 44.2059 16.3002 45.2979C16.3002 45.8673 16.1975 46.3573 15.9922 46.7679C15.7962 47.1693 15.5069 47.5006 15.1242 47.7619C14.7415 48.0139 14.2749 48.2006 13.7242 48.3219C13.1735 48.4433 12.5435 48.5039 11.8342 48.5039H10.9522V51.9199H9.18818V42.3579C9.59885 42.2646 10.0515 42.2039 10.5462 42.1759C11.0502 42.1386 11.5122 42.1199 11.9322 42.1199ZM12.0582 43.6459C11.6102 43.6459 11.2415 43.6599 10.9522 43.6879V46.9919H11.8062C12.6555 46.9919 13.3089 46.8753 13.7662 46.6419C14.2235 46.3993 14.4522 45.9466 14.4522 45.2839C14.4522 44.9666 14.3915 44.7006 14.2702 44.4859C14.1489 44.2713 13.9809 44.1033 13.7662 43.9819C13.5515 43.8606 13.2949 43.7766 12.9962 43.7299C12.7069 43.6739 12.3942 43.6459 12.0582 43.6459ZM19.3528 47.0619C19.3528 47.5939 19.4182 48.0793 19.5488 48.5179C19.6795 48.9473 19.8662 49.3159 20.1088 49.6239C20.3608 49.9226 20.6642 50.1559 21.0188 50.3239C21.3735 50.4919 21.7748 50.5759 22.2228 50.5759C22.6615 50.5759 23.0582 50.4919 23.4128 50.3239C23.7675 50.1559 24.0662 49.9226 24.3088 49.6239C24.5608 49.3159 24.7522 48.9473 24.8828 48.5179C25.0135 48.0793 25.0788 47.5939 25.0788 47.0619C25.0788 46.5299 25.0135 46.0493 24.8828 45.6199C24.7522 45.1813 24.5608 44.8126 24.3088 44.5139C24.0662 44.2059 23.7675 43.9679 23.4128 43.7999C23.0582 43.6319 22.6615 43.5479 22.2228 43.5479C21.7748 43.5479 21.3735 43.6319 21.0188 43.7999C20.6642 43.9679 20.3608 44.2059 20.1088 44.5139C19.8662 44.8219 19.6795 45.1906 19.5488 45.6199C19.4182 46.0493 19.3528 46.5299 19.3528 47.0619ZM26.9268 47.0619C26.9268 47.8926 26.8008 48.6253 26.5488 49.2599C26.3062 49.8946 25.9702 50.4266 25.5408 50.8559C25.1208 51.2759 24.6262 51.5933 24.0568 51.8079C23.4875 52.0226 22.8808 52.1299 22.2368 52.1299C21.5928 52.1299 20.9815 52.0226 20.4028 51.8079C19.8335 51.5933 19.3342 51.2759 18.9048 50.8559C18.4848 50.4266 18.1488 49.8946 17.8968 49.2599C17.6448 48.6253 17.5188 47.8926 17.5188 47.0619C17.5188 46.2313 17.6448 45.5033 17.8968 44.8779C18.1488 44.2433 18.4895 43.7113 18.9188 43.2819C19.3575 42.8526 19.8615 42.5306 20.4308 42.3159C21.0002 42.1013 21.6022 41.9939 22.2368 41.9939C22.8715 41.9939 23.4735 42.1013 24.0428 42.3159C24.6122 42.5306 25.1068 42.8526 25.5268 43.2819C25.9562 43.7113 26.2968 44.2433 26.5488 44.8779C26.8008 45.5033 26.9268 46.2313 26.9268 47.0619ZM31.536 42.1199C32.936 42.1199 34.0047 42.3766 34.742 42.8899C35.4887 43.4033 35.862 44.1873 35.862 45.2419C35.862 46.5579 35.2133 47.4493 33.916 47.9159C34.0933 48.1306 34.294 48.3919 34.518 48.6999C34.742 49.0079 34.9707 49.3439 35.204 49.7079C35.4373 50.0626 35.6613 50.4313 35.876 50.8139C36.0907 51.1873 36.282 51.5559 36.45 51.9199H34.476C34.2987 51.5839 34.1073 51.2479 33.902 50.9119C33.6967 50.5666 33.4867 50.2353 33.272 49.9179C33.0667 49.5913 32.8613 49.2879 32.656 49.0079C32.4507 48.7186 32.2593 48.4619 32.082 48.2379C31.9513 48.2473 31.8393 48.2519 31.746 48.2519C31.6527 48.2519 31.564 48.2519 31.48 48.2519H30.626V51.9199H28.862V42.3579C29.2913 42.2646 29.7487 42.2039 30.234 42.1759C30.7193 42.1386 31.1533 42.1199 31.536 42.1199ZM31.662 43.6459C31.2887 43.6459 30.9433 43.6599 30.626 43.6879V46.8239H31.396C31.8253 46.8239 32.2033 46.8006 32.53 46.7539C32.8567 46.7073 33.1273 46.6233 33.342 46.5019C33.566 46.3806 33.734 46.2173 33.846 46.0119C33.958 45.8066 34.014 45.5453 34.014 45.2279C34.014 44.9293 33.958 44.6773 33.846 44.4719C33.734 44.2666 33.5707 44.1033 33.356 43.9819C33.1507 43.8606 32.9033 43.7766 32.614 43.7299C32.3247 43.6739 32.0073 43.6459 31.662 43.6459ZM44.5791 42.2179V43.7439H41.5971V51.9199H39.8191V43.7439H36.8371V42.2179H44.5791Z" fill="#6A7787"/>
<path d="M36.0611 12.778C35.9595 12.2483 35.8231 11.7265 35.6526 11.216C35.2433 9.98113 34.6748 8.80862 33.9623 7.72998C33.6065 7.20422 33.2175 6.70314 32.7979 6.22998C31.4925 4.66096 29.8832 3.39046 28.0734 2.49998C27.5169 2.1983 26.9316 1.95668 26.3269 1.77898C25.1211 1.35493 23.8622 1.11276 22.5892 1.05998C22.341 1.00806 22.0874 0.987903 21.8343 0.999978C21.561 0.990046 21.2875 1.01016 21.0183 1.05998C19.7472 1.11398 18.4903 1.35682 17.2865 1.78098C16.6853 1.9692 16.1009 2.21042 15.5399 2.50198C13.73 3.36418 12.1191 4.61393 10.8145 6.16798C10.406 6.64898 9.99846 7.18998 9.65012 7.66798C8.9563 8.70662 8.40634 9.83985 8.01611 11.035C7.83392 11.5478 7.67813 12.0702 7.54939 12.6C7.36588 13.7311 7.26855 14.8752 7.2583 16.022C7.24869 16.2639 7.26824 16.5061 7.31652 16.743C7.34306 17.3866 7.40136 18.0284 7.49117 18.666C7.78378 20.4306 8.39603 22.1227 9.29595 23.654C9.60502 24.2216 9.95601 24.7639 10.3458 25.276C11.1257 26.3292 12.0497 27.2602 13.0889 28.04C13.4974 28.34 13.9622 28.701 14.3717 28.94C15.4709 29.6063 16.6458 30.1303 17.8696 30.5C18.4518 30.68 19.0942 30.8 19.6773 30.921C20.3905 31.0406 21.1118 31.1008 21.8343 31.101C22.5956 31.1031 23.3558 31.0429 24.1078 30.921C24.7175 30.8158 25.3211 30.6753 25.9155 30.5C27.1456 30.1203 28.3218 29.5749 29.4134 28.878C29.8802 28.578 30.2867 28.278 30.6962 27.978C31.6893 27.1648 32.5891 26.2375 33.3781 25.214C33.7284 24.673 34.0777 24.192 34.428 23.592C35.2572 22.081 35.8292 20.4349 36.1193 18.725C36.2379 18.0913 36.2964 17.4473 36.2939 16.802C36.2939 16.562 36.3521 16.321 36.3521 16.081C36.4081 14.9713 36.3101 13.8591 36.0611 12.778V12.778ZM26.616 3.58398C28.8181 4.49395 30.7343 6.01145 32.1546 7.96998L30.3517 13.018L27.4408 13.979L22.5892 10.374V6.58798L26.616 3.58398ZM26.3832 15.184L24.6366 20.712H19.036L17.2894 15.184L21.8372 11.759L26.3851 15.184H26.3832ZM21.0193 2.68398C21.3104 2.68398 21.5442 2.62398 21.8353 2.62398C22.1086 2.61405 22.3822 2.63416 22.6513 2.68398C23.3577 2.72487 24.0596 2.82521 24.7501 2.98398L22.6513 4.54498L21.8353 5.14498L21.0193 4.54498L18.9195 2.98298C19.61 2.82421 20.3119 2.72387 21.0183 2.68298L21.0193 2.68398ZM17.0546 3.58398L21.0775 6.58398V10.374L16.2958 13.979L13.3218 12.958L11.5151 8.02998C12.9169 6.03672 14.8393 4.49488 17.0585 3.58398H17.0546ZM9.12421 13.2C9.24342 12.6683 9.39807 12.1457 9.58705 11.636C9.81992 10.975 10.112 10.314 10.4031 9.65298L11.3356 12.237L11.6858 13.137L10.8698 13.798L8.89133 15.421C8.90818 14.6752 8.98608 13.9322 9.12421 13.2V13.2ZM8.89133 17.466L12.6222 14.4L15.7126 15.482L17.5785 21.371L16.1794 23.413L11.1066 23.593C9.92705 21.7497 9.16956 19.6543 8.89133 17.465V17.466ZM15.2469 27.566C14.7802 27.266 14.3736 26.966 13.9059 26.666C13.3346 26.198 12.7894 25.6972 12.2729 25.166L14.9548 25.046L15.8281 24.986L16.1794 26L17.0526 28.4C16.4241 28.1844 15.8187 27.9029 15.2459 27.56L15.2469 27.566ZM24.7511 29.066C23.7986 29.3075 22.8211 29.4288 21.8402 29.427C20.9004 29.4163 19.9636 29.3159 19.0418 29.127L17.4087 24.44L18.8642 22.277H24.8112L26.3269 24.377L24.7511 29.066ZM29.8239 26.542C29.4244 26.8824 28.9949 27.1837 28.5411 27.442C27.9357 27.8336 27.2904 28.1559 26.617 28.403L27.433 25.939L27.7833 24.917H28.6566L31.3385 24.977C30.9244 25.5835 30.4117 26.1116 29.8229 26.538L29.8239 26.542ZM32.6223 23.477L27.4913 23.357L26.0358 21.374L27.8435 15.545L30.9921 14.523L34.6657 17.523C34.5281 19.6623 33.8207 21.7211 32.6213 23.473L32.6223 23.477ZM32.8551 13.863L31.9819 13.142L32.273 12.361L33.2646 9.66098C33.6041 10.3189 33.896 11.0018 34.1379 11.704C34.3011 12.2167 34.4375 12.7381 34.5464 13.266C34.6847 13.9787 34.7626 14.7024 34.7793 15.429L32.8551 13.863Z" fill="#6A7787"/>
</svg>
