<svg width="17" height="18" viewBox="0 0 17 18" fill="none" xmlns="http://www.w3.org/2000/svg">
<path d="M16.0414 6.89298C15.9915 6.71485 15.8972 6.5576 15.7704 6.44079C15.6437 6.32397 15.4899 6.25275 15.3283 6.23598L10.8228 5.76398L9.04741 0.955976C8.98371 0.783308 8.87742 0.636068 8.74177 0.532574C8.60613 0.429081 8.44711 0.373901 8.2845 0.373901C8.12189 0.373901 7.96287 0.429081 7.82723 0.532574C7.69158 0.636068 7.58529 0.783308 7.52159 0.955976L5.74276 5.76398L1.2398 6.23598C1.07821 6.25316 0.924521 6.32464 0.797752 6.44156C0.670984 6.55849 0.576692 6.71573 0.526539 6.89386C0.476385 7.07198 0.47257 7.26316 0.515564 7.44375C0.558559 7.62435 0.646478 7.78644 0.768447 7.90998L4.17188 11.356L3.17199 16.456C3.13593 16.6387 3.14716 16.8296 3.20428 17.0051C3.26139 17.1805 3.36189 17.3327 3.49328 17.4429C3.62468 17.553 3.7812 17.6161 3.94342 17.6245C4.10564 17.6329 4.26643 17.5861 4.40582 17.49L8.28407 14.81L12.1658 17.489C12.3051 17.5837 12.4653 17.6294 12.6268 17.6205C12.7883 17.6115 12.9439 17.5482 13.0747 17.4385C13.2054 17.3287 13.3055 17.1772 13.3626 17.0027C13.4197 16.8281 13.4314 16.6381 13.3961 16.456L12.3963 11.356L15.7997 7.91198C15.9218 7.78835 16.0098 7.62609 16.0527 7.44532C16.0957 7.26455 16.0918 7.0732 16.0414 6.89498V6.89298Z" fill="white"/>
</svg>
